<svg xmlns="http://www.w3.org/2000/svg" width="608" height="703" fill="none"><path fill="#9BDBFF" fill-rule="evenodd" d="M274.682 624.695c-90.691 1.149-191.778-18.203-240.714-94.496-47.414-73.92-6.692-165.9 20.053-249.522 25.283-79.051 49.914-164.35 124.198-201.497 79.665-39.837 176.323-31.559 253.734 12.507 76.191 43.37 125.102 122.58 136.225 209.472 10.573 82.604-24.856 161.592-80.83 223.295-55.377 61.045-130.203 99.196-212.666 100.241Z" clip-rule="evenodd"/><mask id="a" width="609" height="703" x="0" y="0" maskUnits="userSpaceOnUse" style="mask-type:luminance"><path fill="#fff" d="M609 0H0v703h609V0Z"/></mask><g mask="url(#a)"><path fill="#FFD500" d="M372.677 452.008c43.267-4.947 114.24 8.533 53.485 93.913-60.307 84.752-71.983 138.042-39.605 127.557.233-.087.476-.168.727-.244-.245.085-.487.166-.727.244-9 3.363-4.884 15.5-9.534 20.422-36.039 5.73-36.71-42.708 43.783-148.971 19.372-28.252 32.311-83.264-44.064-80.301l-4.065-12.62Z"/><path fill="#005BBB" d="M367.839 435.945c48.888-11.167 102.22-15.556 47.883 85.626-53.78 100.145 3.268 92.653 39.534 76.01.343-.178.716-.351 1.12-.52-.371.174-.745.348-1.12.52-8.93 4.613 1.886 11.941-2.512 17.856-40.429 11.056-105.702 7.687-43.367-94.232 17.139-33.384 49.682-87.155-37.67-73.731l-3.868-11.529Z"/><path fill="#0D070C" d="M125.47 181.55c7.186-.708 12.108-10.436 10.995-21.728-1.114-11.292-7.841-19.871-15.027-19.162-7.186.708-12.108 10.436-10.995 21.728 1.114 11.292 7.841 19.871 15.027 19.162ZM264.678 140.549c-6.578 2.979-15.705-2.985-20.386-13.32-4.682-10.336-3.145-21.129 3.432-24.109 6.577-2.979 15.704 2.985 20.386 13.32 4.681 10.336 3.145 21.13-3.432 24.109Z"/><path fill="#fff" fill-rule="evenodd" d="M171.969 71.34c-24.875 6.987-70.018 30.942-51.587 70.862 12.355 26.761 5.896 38.822-1.086 51.859-6.038 11.272-12.466 23.275-7.459 46.143 4.547 20.77 14.005 33.622 23.445 46.449 12.971 17.627 25.909 35.208 26.024 73.228.16 52.55 38.788 191.664 58.083 254.653l91.555-24.533L171.969 71.339Zm.242.901c25.036-6.386 76.109-8.211 80.108 35.576 2.667 29.207 18.079 37.656 34.201 46.494 14.089 7.723 28.721 15.744 35.859 38.179 6.679 20.989 1.945 36.477-2.8 52.003-6.13 20.058-12.28 40.178 6.137 72.301 26.137 45.59 62.241 185.381 77.025 249.577l-91.555 24.532L172.211 72.241Z" clip-rule="evenodd"/><path fill="url(#b)" d="M174.06 288.943c-13.292 11.305-36.977 5.292-52.902-13.432-15.924-18.723-18.057-43.067-4.764-54.372 13.292-11.305 36.977-5.292 52.901 13.432 15.925 18.723 18.058 43.067 4.765 54.372Z"/><path fill="url(#c)" d="M279.442 260.18c-16.619-5.32-24.017-28.61-16.524-52.019 7.493-23.41 27.041-38.074 43.66-32.754 16.619 5.319 24.017 28.609 16.524 52.018-7.493 23.41-27.04 38.074-43.66 32.755Z"/><path fill="#005BBB" d="M375.705 459.832c-58.533 46.399-148.133 59.325-185.013 53.796l6.258 21.624c84.844 18.11 158.013-28.823 184.934-53.974l-6.179-21.446Z"/><path fill="#FFD500" d="M381.884 480.551c-69.17 58.768-148.2 59.492-185.187 54.392l5.263 16.851c85.194 17.12 159.686-21.792 186.103-47.253l-6.179-23.99Z"/><path fill="#fff" d="M252.23 124.548c3.197.509 6.437-3.15 7.237-8.173.8-5.023-1.143-9.508-4.339-10.017-3.197-.509-6.437 3.15-7.237 8.173-.8 5.023 1.143 9.508 4.339 10.017ZM119.194 162.35c3.197.509 6.437-3.15 7.237-8.173.8-5.023-1.143-9.508-4.339-10.017-3.197-.509-6.437 3.15-7.237 8.173-.8 5.023 1.143 9.508 4.339 10.017Z" opacity=".5"/><path fill="#fff" d="M294.873 550.081C134.646 581.273 169 798.428 206.205 903.107c187.394 61.3 537.098 123.713 436.766-117.031C542.64 545.331 410.765 517.272 357.369 533.335l-62.496 16.746Z"/><path fill="#FF6B0A" d="M148.679 188.277c-19.709-62.008 37.707-88.626 37.66-87.782 64.902 0 73.957 55.574 73.957 64.158 0 23.624 41.944 33.268 37.126 59.177-4.818 25.909 8.149 73.709 8.071 109.501-.047 21.934-6.397 31.639-11.79 35.122 1.582-.409.944-.151-.614.372-1.419.806-2.749 1.184-3.853 1.249 1.434-.455 2.839-.908 3.853-1.249.203-.115.408-.239.614-.372-2.08.537-7.996 2.224-20.704 5.972-35.839 10.57-50.783-36.182-96.405-81.965-45.621-45.783-3.28-26.674-27.915-104.183Z"/><path fill="#1F0C02" d="M266.836 351.423c-29.541 5.209-56.031-56.367-65.583-87.806 16.693-8.662 53.683-24.439 68.103-18.248 18.025 7.738 34.407 99.544-2.52 106.054Z"/><path fill="#724B3B" d="M270.524 341.734c19.529-7.939 1.303-50.461-10.251-70.729l-39.238 10.514c8.36 23.38 29.96 68.155 49.489 60.215Z"/><path fill="#6B3B28" d="M264.046 326.505c3.372-4.1-14.449-46.234-23.781-66.788l-8.374 3.231c9.314 22.894 28.783 67.656 32.155 63.557Z"/><path fill="#ED5E00" d="M183.001 242.404c8.366-46.713-9.163-66.669-18.973-70.808 19.577-48.171 60.775-34.17 78.927-21.149-12.125 46.754-3.688 9.689 27.994 68.392 25.345 46.962-3.192 72.88-20.628 79.969-25.925.663-75.685-9.69-67.32-56.404Z"/><path fill="#FF8E3D" d="M279.021 239.111c-63.005-50.406-84.791 4.673-87.809 38.513 7.594 11.5 30.278 31.815 60.27 21.072 29.992-10.743 30.856-44.2 27.539-59.585Z"/><path fill="#FD7411" d="M225.359 245.014c-1.938-5.21-6.397-14.612-8.723-10.541-2.327 4.071 4.846 8.723 8.723 10.541ZM235.531 242.307c-1.774-5.268-4.23-15.38.141-13.682 4.37 1.698 1.727 9.829-.141 13.682Z"/><path fill="#373500" d="m195.918 24.016 16.357 44.708c-18.611 30.824-67.366 34.41-89.417 32.35l-15.993-45.798 89.053-31.26Z"/><path fill="#373500" d="M212.275 68.724c.848 26.292-17.011 67.463-89.417 31.987l89.417-31.987ZM154.157 47.328c24.679-8.513 43.496-18.863 42.029-23.117-1.468-4.254-22.664-.802-47.343 7.711-24.679 8.513-43.496 18.863-42.029 23.117 1.468 4.254 22.664.801 47.343-7.711Z"/><path fill="#4B4800" d="m195.918 24.016 16.357 44.708c-18.611 30.824-67.366 34.41-89.417 32.35l-15.993-45.798s7.691-.965 12.358-2.545c5.592-1.893 13.449-6.906 13.449-6.906l38.529 31.26V30.559s8.383 1.387 13.449 0c4.908-1.344 11.268-6.543 11.268-6.543Z"/><path fill="#FFD500" d="M144.575 44.397c.279.052.509.08.725.146 1.798.497 3.12 1.44 4.125 3.19.425.742.779 1.548 1.158 2.312.333.677.662 1.341 1.007 2.013.091.173.097.263-.078.379-.38.23-.638.604-.64 1.117-.009.454.186.795.512 1.01.331.228.693.208 1.046.053.174-.084.26-.22.285-.449a14.03 14.03 0 0 0-.337-5.147c-.354-1.397-.94-2.681-1.474-3.975-.302-.739-.585-1.502-.91-2.23-.199-.463-.353-.916-.42-1.427a3.796 3.796 0 0 1 .111-1.544c.434.21.787.535 1.039.956.231.401.425.85.598 1.28.187.468.317.964.476 1.43.419 1.241.827 2.488 1.281 3.712.769 2.035 1.929 3.724 3.495 5.032.204.18.391.168.601.035.537-.322.774-1.011.555-1.603-.206-.553-.82-.846-1.375-.608-.202.082-.243.008-.288-.187-.252-1.012-.521-2.03-.785-3.036-.289-1.149-.636-2.27-.623-3.487.019-1.608.448-2.887 1.252-4.223.061-.092.123-.183.21-.319l.102.277 5.592 15.071c.107.29.107.29-.137.408l-2.76 1.335c-.162.078-.212.165-.179.366.251 1.524.054 2.986-.632 4.343-.141.285-.238.611-.358.917-.775-.431-1.682-.552-2.421-1.142-.603-.484-1.152-1.041-1.563-1.743-.098-.154-.187-.173-.326-.106l-2.807 1.358c-.163.078-.247.073-.325-.138l-5.626-15.163c-.032-.016-.052-.068-.106-.213Zm1.89 1.85c-.018.024-.053.04-.071.065l.102.276 2.667 7.187c.151.408.151.408.522.229.139-.068.194-.14.17-.316a2.251 2.251 0 0 1 .395-1.48c.124-.183.103-.313.011-.486-.441-.858-.899-1.723-1.305-2.597-.433-.909-.882-1.53-1.608-2.157-.289-.264-.587-.477-.883-.722Zm9.572-4.584c-.023.01-.04.003-.063.014-.03.14-.061.278-.08.412-.159 1.008-.301 1.806-.07 2.797.3 1.252.624 2.493.936 3.74.035.168.109.257.282.282.476.065.886.285 1.217.7.153.19.3.18.577-.031.171-.13.043-.254-.001-.372l-2.715-7.319a.75.75 0 0 0-.083-.224Zm-3.369 14.112c-.063.014-.138.035-.229.048-.799.17-1.518.036-2.068-.707-.079-.102-.144-.132-.244-.069l-.244.118c-.116.056-.142.131-.094.263.367.987.738 1.988 1.116 2.97.019.052.156.125.202.103.632-.29 1.269-.598 1.891-.915.046-.022.105-.159.097-.217-.139-.523-.278-1.045-.427-1.594Zm4.964-2.402c.242.504.485.976.722 1.467.065.14.158.094.251.05.591-.287 1.166-.58 1.763-.853.185-.09.214-.197.129-.389-.339-.876-.654-1.764-.986-2.659-.152-.408-.152-.408-.511-.234-.104.05-.197.095-.178.257.079.878-.263 1.54-.83 2.078-.125.107-.259.188-.36.283Zm-3.836-2.522c.051 1.17.093 2.315-.064 3.477.462.103.896.203 1.337.285.061.017.167-.065.21-.133.224-.356.414-.728.637-1.084.069-.111.068-.188-.034-.279-.727-.595-1.34-1.323-1.927-2.095-.059-.049-.112-.117-.159-.171Zm.882 7.134c.207.707 1.353 1.767 1.799 1.753l.014-.038c-.254-.684-.496-1.374-.757-2.04-.02-.052-.13-.092-.181-.083-.3.114-.585.267-.875.408Zm2.783 1.308c.377-.57.434-2.26.158-2.747l-.789.382c-.151.073-.173.161-.114.32l.615 1.658c.033.124.077.242.13.387Zm-2.763-2.544c.151-.073.318-.139.459-.238.046-.023.1-.173.074-.207-.285-.545-.795-.888-1.331-.784-.114.024-.162.078-.141.208.085.378.182.75.272 1.141.038.137.127.156.231.106a5.52 5.52 0 0 1 .436-.227Zm2.134-1.033.406-.196c.144-.055.201-.16.114-.32a29.579 29.579 0 0 0-.482-.93c-.082-.147-.166-.153-.286-.033-.387.358-.581 1.088-.402 1.607.02.053.135.106.186.096.167-.065.313-.151.464-.224ZM374.5 454c43.266-4.947 112.417 6.541 51.662 91.921-60.308 84.752-71.983 138.042-39.606 127.557.234-.087.476-.168.728-.244-.245.085-.488.166-.728.244-9 3.363-4.884 15.5-9.533 20.422-36.039 5.73-36.711-42.708 43.783-148.971 19.372-28.252 33.069-83.392-43.306-80.429l-3-10.5Z"/><path fill="#005BBB" d="M369.5 438c48.888-11.167 100.559-17.611 46.222 83.571-53.78 100.145 3.268 92.653 39.533 76.01.344-.178.717-.351 1.121-.52-.371.174-.745.348-1.121.52-8.929 4.613 1.887 11.941-2.512 17.856-40.428 11.056-105.701 7.687-43.366-94.232C426.515 487.821 456 432.5 373 445.5l-3.5-7.5Z"/></g><defs><radialGradient id="b" cx="0" cy="0" r="1" gradientTransform="matrix(28.83334 33.90183 -24.06843 20.47008 145.227 255.041)" gradientUnits="userSpaceOnUse"><stop stop-color="#FBB"/><stop offset="1" stop-color="#FBB" stop-opacity="0"/></radialGradient><radialGradient id="c" cx="0" cy="0" r="1" gradientTransform="rotate(107.75 67.024 215.828) scale(44.505 31.5961)" gradientUnits="userSpaceOnUse"><stop stop-color="#FBB"/><stop offset="1" stop-color="#FBB" stop-opacity="0"/></radialGradient></defs></svg>