<svg xmlns="http://www.w3.org/2000/svg" width="374" height="374" fill="none">
    <path fill="url(#a)" fill-rule="evenodd" d="M151.555 298.849c-36.532-8.373-75.242-25.99-87.462-61.395-11.841-34.303 13.471-67.274 32.357-98.25 17.853-29.283 36.053-61.138 69.502-68.82 35.872-8.238 73.882 4.501 100.677 29.737 26.372 24.838 38.299 61.411 34.302 97.389-3.8 34.202-25.722 62.471-54.21 81.798-28.184 19.121-61.949 27.153-95.166 19.541Z" clip-rule="evenodd"/>
    <path fill="#F5F5F5" d="M157.235 314.22c-63.5 0-34.107-80.81 31.026-77.291 49.735 33.551 27.474 77.291-31.026 77.291Z"/>
    <path fill="url(#b)" d="M174.551 166.88c-7.693-18.463 3.205-25.643 9.616-26.925 4.808 3.205 21.925 9.616 13.462 9.616-8.462 0-6.09 11.539-3.846 17.309 41.542 56.158 17.309 87.507 4.808 96.161-14.424-5.769-38.465-19.04-19.232-25.963 24.04-8.655 4.808-47.119-4.808-70.198Z"/>
    <path fill="#C4C4C4" d="M253.799 171.404c30.608 118.14-2.885 139.417-28.19 117.264-13.966-4.627-7.76.874-5.616-11.724 4.675-1.456-.901-75.982-1.107-90.836-.206-14.855 4.763-11.87 7.273-8.521 2.889-21.647 7.544-11.417 9.51-3.596 1.689-55.163 12.79-24.709 18.13-2.587Z"/>
    <path fill="url(#c)" d="M252.558 172.164c30.608 118.141-2.885 139.417-28.19 117.265-13.965-4.627-7.76.873-5.616-11.725 4.675-1.456-.901-75.981-1.107-90.836-.206-14.854 4.763-11.87 7.274-8.521 2.889-21.647 7.543-11.416 9.51-3.595 1.688-55.164 12.789-24.71 18.129-2.588Z"/>
    <path fill="#fff" d="M227.288 176.764c-27.271 15.037-39.929 6.266-42.85 0-19.911-11.839-15.292-52.248 18.797-52.248 34.088 0 58.142 33.452 24.053 52.248Z"/>
    <path fill="#DF5B04" d="m209.719 168.357 2.453-2.426c5.384-5.327 13.157-8.94 22.195-10.314.618-.094 1.309.117 1.747.534l22.24 21.174c1.38 1.313.132 2.988-1.923 2.582l-45.206-8.938c-1.568-.31-2.39-1.736-1.506-2.612Z"/>
    <path fill="#010101" d="M254.719 139.72h-15v22h15v-22Z"/>
    <path fill="#010101" d="M239.719 161.72c-6.075 0-11-4.925-11-11s4.925-11 11-11 11 4.925 11 11-4.925 11-11 11Z"/>
    <path fill="#222" d="M254.719 161.72c-6.075 0-11-4.925-11-11s4.925-11 11-11 11 4.925 11 11-4.925 11-11 11Z"/>
    <path fill="#8DCCF0" d="M254.719 158.72a8 8 0 1 1 0-16 8 8 0 0 1 0 16Z"/>
    <path fill="#fff" d="M254.719 157.72a7 7 0 1 1 0-14 7 7 0 0 1 0 14Z" opacity=".29"/>
    <path fill="#fff" d="M259.856 150.857c-.976.977-2.97.566-4.453-.917-1.482-1.482-1.893-3.476-.917-4.452.977-.977 2.97-.566 4.453.917s1.893 3.476.917 4.452Z"/>
    <path fill="#FF6B0A" d="m209.105 168.27 1.705-1.632c5.899-5.645 14.242-9.504 23.909-11.057a2.437 2.437 0 0 1 1.322.175l32.664 14.039c2.147.923 1.688 3.242-.626 3.163l-56.985-1.943c-1.829-.063-3.043-1.737-1.989-2.745Z"/>
    <path fill="#010101" d="M226.719 140.72h-15v22h15v-22Z"/>
    <path fill="#010101" d="M211.719 162.72c-6.075 0-11-4.925-11-11s4.925-11 11-11 11 4.925 11 11-4.925 11-11 11Z"/>
    <path fill="#222" d="M226.719 162.72c-6.075 0-11-4.925-11-11s4.925-11 11-11 11 4.925 11 11-4.925 11-11 11Z"/>
    <path fill="#8DCCF0" d="M226.719 159.72a8 8 0 1 1 0-16 8 8 0 0 1 0 16Z"/>
    <path fill="#fff" d="M226.719 158.72a7 7 0 1 1 0-14 7 7 0 0 1 0 14Z" opacity=".29"/>
    <path fill="#fff" d="M231.856 151.857c-.976.977-2.97.566-4.453-.917-1.482-1.482-1.893-3.476-.917-4.452.977-.977 2.97-.566 4.453.917s1.893 3.476.917 4.452Z"/>
    <path fill="#0C0632" d="m228.631 104.642-.794-4.186-50.036 9.489 4.304 22.7 1.759-.334 41.729-5.263 6.549-3.892-2.992-15.779.246-.013-.037-2.726-.728.004Z"/>
    <path fill="#0C0632" d="M204.119 112.082c-14.213 2.695-25.953 3.735-26.221 2.322-.268-1.412 11.038-4.742 25.251-7.438 14.214-2.695 25.953-3.735 26.221-2.322.268 1.412-11.037 4.743-25.251 7.438ZM232.734 123.12c17.048.982 33.229 23.044-37.885 11.399l37.885-11.399Z"/>
    <path fill="#494600" d="M232.852 122.935c-2.654 7.896-45.675 15.633-51.49 9.764l-3.411-18.255c7.587 1.026 21.085-5.823 32.755-3.821l14.907 13.263 3.746-19.248 3.493 18.297Z"/>
    <path fill="#0C0632" d="M203.37 108.077c-13.814 2.619-25.229 3.598-25.497 2.185-.268-1.412 10.713-4.681 24.527-7.301 13.814-2.619 25.23-3.598 25.498-2.185.268 1.412-10.714 4.681-24.528 7.301Z"/>
    <path fill="#0C0632" d="M203.749 112.152c-14.009 2.657-25.582 3.665-25.85 2.253-.268-1.413 10.871-4.712 24.879-7.368 14.009-2.657 25.582-3.665 25.85-2.252.268 1.412-10.871 4.711-24.879 7.367Z"/>
    <path fill="#FFD500" d="M223.132 107.566c-.076.096-.141.171-.193.252-.444.665-.622 1.315-.492 2.096.054.331.149.659.224.983.068.286.134.567.197.854.015.075.036.102.122.083.179-.047.357-.019.489.124.12.123.145.275.097.43-.047.161-.167.261-.319.321-.077.028-.139.016-.206-.041a4.678 4.678 0 0 1-1.213-1.531c-.245-.492-.389-1.021-.551-1.538-.093-.294-.199-.589-.283-.887a1.8 1.8 0 0 0-.232-.52 1.268 1.268 0 0 0-.431-.397c-.084.185-.113.38-.085.571.029.179.083.361.138.531.06.185.147.361.216.537.185.468.375.935.544 1.408.278.791.343 1.602.18 2.424-.018.11-.081.161-.182.186-.253.067-.505-.055-.587-.284-.077-.214.044-.475.281-.572.085-.036.079-.069.044-.136-.18-.355-.356-.718-.53-1.075-.202-.404-.379-.818-.696-1.152-.418-.442-.883-.673-1.481-.809l-.148-.027.038.107 2.089 5.831c.04.112.04.112.147.073l1.22-.436c.072-.026.11-.017.151.049.311.498.748.847 1.314 1.023.118.039.233.101.349.151.136-.347.393-.646.477-1.027a2.56 2.56 0 0 0 .049-.943c-.008-.071.015-.103.077-.125l1.24-.444c.072-.026.097-.052.068-.133l-2.101-5.867c.006-.014-.001-.034-.021-.09Zm-.126 1.068c.012.001.027-.005.039-.003l.038.107.996 2.781c.057.157.057.157-.107.216-.062.022-.098.018-.135-.038a.773.773 0 0 0-.505-.296c-.086-.015-.113-.057-.128-.132-.08-.368-.157-.743-.252-1.105a2.35 2.35 0 0 1-.042-1.071c.024-.158.064-.305.096-.459Zm-4.217 1.527c.01-.004.013-.01.023-.014.046.03.091.059.131.091.309.234.559.415.74.758.226.436.441.876.662 1.314.032.058.031.104-.018.162a.818.818 0 0 0-.207.551c0 .097-.049.138-.191.16-.088.014-.079-.058-.095-.104l-1.014-2.831a.247.247 0 0 1-.031-.087Zm4.689 2.94c.024-.014.053-.03.085-.053.297-.187.492-.435.476-.803-.001-.051.012-.079.06-.09l.108-.039c.051-.018.079-.005.097.046.137.382.275.769.407 1.153.007.02-.017.081-.038.088-.275.104-.556.205-.835.299-.021.008-.074-.013-.087-.032l-.273-.569Zm-2.193.786c.052.211.096.414.147.62.015.057-.026.072-.067.087-.262.093-.52.18-.779.279-.082.029-.119.008-.141-.07-.117-.344-.244-.683-.368-1.029-.057-.158-.057-.158.102-.215.046-.017.087-.031.122.019.2.268.479.352.797.336.067-.007.13-.024.187-.027Zm.572-1.825c.284.34.564.671.912.949-.12.163-.232.318-.352.47-.015.023-.069.031-.101.025-.162-.034-.318-.081-.48-.115-.05-.011-.07-.033-.06-.088.078-.378.086-.76.074-1.147.007-.031.006-.065.007-.094Zm1.549 2.243c.116.258.024.888-.122 1.015l-.014-.007c-.095-.264-.195-.527-.282-.789-.008-.02.017-.064.036-.076.124-.056.254-.097.382-.143Zm-.549 1.179c-.266-.048-.717-.501-.754-.718l.348-.125c.067-.024.097-.005.118.056l.23.641c.022.044.038.09.058.146Zm.226-1.517c-.067.024-.137.055-.207.068-.02.008-.076-.018-.076-.036-.05-.235.024-.48.221-.608.043-.026.072-.025.099.017.069.13.134.262.206.397.023.049 0 .081-.047.097-.063.017-.13.041-.196.065Zm-.943.338-.179.064c-.06.027-.105.014-.119-.055-.03-.133-.06-.266-.085-.401-.012-.065.014-.091.082-.093.215-.013.464.133.54.33.008.02-.015.069-.034.081-.07.031-.138.05-.205.074Z"/>
    <path fill="url(#d)" d="M201.291 178.467c-5.472 4.654-14.026 3.585-19.106-2.388-5.08-5.973-4.762-14.588.71-19.242 5.472-4.654 14.026-3.585 19.106 2.388 5.08 5.973 4.762 14.588-.71 19.242Z"/>
    <path fill="#C4C4C4" d="M228.971 176.985c30.608 118.14-2.885 139.416-28.19 117.264-13.965-4.627-7.76.874-5.616-11.725 4.675-1.456-.901-75.981-1.107-90.836-.206-14.854 4.763-11.869 7.273-8.52 2.889-21.648 7.544-11.417 9.511-3.596 1.688-55.163 12.789-24.71 18.129-2.587Z"/>
    <path fill="url(#e)" d="M227.167 177.849c30.609 118.14-2.885 139.416-28.19 117.264-13.965-4.627-7.76.873-5.616-11.725 4.675-1.456-.901-75.981-1.107-90.836-.206-14.854 4.763-11.87 7.274-8.521 2.889-21.647 7.544-11.416 9.51-3.595 1.688-55.164 12.79-24.71 18.129-2.587Z"/>
    <path fill="url(#f)" d="M309.719 263.041h-221v60h221v-60Z"/>
    <defs>
        <linearGradient id="a" x1="152.749" x2="221.251" y1="299.78" y2="73.169" gradientUnits="userSpaceOnUse">
            <stop stop-color="#A5DEFF"/>
            <stop offset="1" stop-color="#BDE7FF"/>
        </linearGradient>
        <linearGradient id="b" x1="194.482" x2="194.482" y1="263.041" y2="263.041" gradientUnits="userSpaceOnUse">
            <stop stop-color="#F4F4F4"/>
            <stop offset="1" stop-color="#fff"/>
        </linearGradient>
        <linearGradient id="c" x1="228.699" x2="186.159" y1="292.712" y2="195.36" gradientUnits="userSpaceOnUse">
            <stop stop-color="#F4F4F4"/>
            <stop offset="1" stop-color="#fff"/>
        </linearGradient>
        <linearGradient id="e" x1="239.341" x2="189.981" y1="237.137" y2="237.267" gradientUnits="userSpaceOnUse">
            <stop stop-color="#F4F4F4"/>
            <stop offset="1" stop-color="#fff"/>
        </linearGradient>
        <linearGradient id="f" x1="199.219" x2="199.219" y1="263.041" y2="323.041" gradientUnits="userSpaceOnUse">
            <stop stop-color="#FAFAFA" stop-opacity="0"/>
            <stop offset="1" stop-color="#fff"/>
        </linearGradient>
        <radialGradient id="d" cx="0" cy="0" r="1" gradientTransform="matrix(9.19803 10.81491 -9.9082 8.42688 192.093 167.652)" gradientUnits="userSpaceOnUse">
            <stop stop-color="#FBB"/>
            <stop offset="1" stop-color="#FBB" stop-opacity="0"/>
        </radialGradient>
    </defs>
</svg>