<svg xmlns="http://www.w3.org/2000/svg" width="30" height="52" fill="none">
    <path fill="#F2CD13" d="M27.992 5.188c-8.202 7.96-6.94 20.34-6.883 20.871l.115 1.002.975.118c.287.06 1.95.413 1.72 3.066-.171 2.3-2.695 2.653-3.728 2.77-.86-1.178-3.67-6.072-3.958-20.103v-2.123s.23-5.011.46-7.134L15.028 0l-1.721 3.537c.23 2.123.459 7.134.459 7.134v2.123c-.287 14.031-3.098 18.984-3.958 20.104-1.09-.059-3.557-.472-3.729-2.771-.23-2.653 1.434-3.007 1.721-3.066l.975-.118.115-1.002c.057-.53 1.32-12.911-6.883-20.87L0 3.242v38.145h8.317c.689 5.6 5.68 9.787 5.909 9.964l.745.648.746-.648c.23-.177 5.277-4.363 5.908-9.964h8.318V3.243l-1.95 1.945ZM6.597 24.938c-1.205.472-2.64 1.71-2.869 4.069H2.41V9.315c4.188 5.778 4.245 13.148 4.188 15.624Zm1.548 12.794.058 1.18H2.409v-7.488h1.492c.63 2.358 2.696 3.36 4.588 3.773-.344 1.18-.344 2.359-.344 2.535Zm2.41-.059c0-.648.057-1.591.344-2.18 2.122.47 2.696 2.24 2.868 3.477h-3.155l-.057-1.297Zm3.27 9.787c-1.205-1.474-2.64-3.596-3.041-6.072h3.04v6.072Zm1.49-12.44c-.114.118-.229.295-.344.472-.114-.177-.23-.295-.344-.472-.63-.707-1.377-1.297-2.237-1.65.803-1.415 1.778-3.774 2.581-7.724.803 3.95 1.779 6.368 2.582 7.724a5.59 5.59 0 0 0-2.238 1.65Zm.86 12.381v-6.013h3.041c-.344 2.417-1.778 4.54-3.04 6.013Zm3.27-9.728-.057 1.239h-3.155c.172-1.239.746-3.007 2.868-3.479.287.649.345 1.592.345 2.24Zm3.958-12.734c-.114-2.418 0-9.787 4.188-15.624v19.692h-1.32c-.229-2.417-1.606-3.597-2.868-4.068Zm-1.606 13.973.058-1.18c0-.176.057-1.356-.287-2.535 1.835-.354 3.9-1.415 4.589-3.773h1.491v7.488h-5.85Z"/>
</svg>